<?xml version="1.0" encoding="utf-8"?>
<!-- Generator: Adobe Illustrator 19.2.0, SVG Export Plug-In . SVG Version: 6.00 Build 0)  -->
<svg version="1.1" id="Layer_1" xmlns="http://www.w3.org/2000/svg" xmlns:xlink="http://www.w3.org/1999/xlink" x="0px" y="0px"
	 viewBox="0 0 389.9 389.9" style="enable-background:new 0 0 389.9 389.9;" xml:space="preserve">
<style type="text/css">
	.st0{fill:none;stroke:#000000;stroke-width:11;stroke-miterlimit:10;}
	.st1{stroke:#000000;stroke-width:5;stroke-miterlimit:10;}
	.st2{fill:#CE2E95;stroke:#000000;stroke-width:5;stroke-miterlimit:10;}
	.st3{fill:#F69679;stroke:#000000;stroke-width:5;stroke-miterlimit:10;}
	.st4{fill:#FFF200;stroke:#000000;stroke-width:5;stroke-miterlimit:10;}
	.st5{opacity:0.5;fill:#F26649;stroke:#000000;stroke-width:5;stroke-miterlimit:10;}
	.st6{opacity:0.5;fill:#ED4A66;stroke:#000000;stroke-width:5;stroke-miterlimit:10;}
	.st7{opacity:0.35;fill:#ED9DD9;stroke:#000000;stroke-width:5;stroke-miterlimit:10;}
	.st8{fill:#00AEEF;stroke:#000000;stroke-width:5;stroke-miterlimit:10;}
	.st9{opacity:0.5;fill:#5B57A6;stroke:#000000;stroke-width:5;stroke-miterlimit:10;}
	.st10{opacity:0.5;fill:#5E9E9C;stroke:#000000;stroke-width:5;stroke-miterlimit:10;}
	.st11{opacity:0.35;fill:#08B291;stroke:#000000;stroke-width:5;stroke-miterlimit:10;}
	.st12{opacity:0.35;fill:#D16CEA;stroke:#000000;stroke-width:5;stroke-miterlimit:10;}
	.st13{opacity:0.35;fill:#66FFFF;stroke:#000000;stroke-width:5;stroke-miterlimit:10;}
	.st14{opacity:0.1;fill:#FFFFFF;stroke:#000000;stroke-width:5;stroke-miterlimit:10;}
	.st15{fill:none;stroke:#000000;stroke-width:5;stroke-miterlimit:10;}
</style>
<circle class="st0" cx="195" cy="195" r="172.8"/>
<path class="st1" d="M290.6,290.6c-12.9,40.6-50.8,69.9-95.6,69.9c91.4,0,165.5-74.1,165.5-165.5
	C360.5,239.8,331.1,277.7,290.6,290.6z"/>
<path class="st1" d="M99.4,290.6c-40.6-12.9-69.9-50.8-69.9-95.6c0,91.4,74.1,165.5,165.5,165.5C150.2,360.5,112.2,331.1,99.4,290.6
	z"/>
<path class="st1" d="M99.4,99.4c12.9-40.6,50.8-69.9,95.6-69.9c-91.4,0-165.5,74.1-165.5,165.5C29.4,150.2,58.8,112.2,99.4,99.4z"/>
<path class="st1" d="M290.6,99.4c40.6,12.9,69.9,50.8,69.9,95.6c0-91.4-74.1-165.5-165.5-165.5C239.8,29.4,277.7,58.8,290.6,99.4z"
	/>
<path class="st2" d="M99.4,99.4c9.6-3,19.8-4.7,30.3-4.7c24.9,0,47.7,9.1,65.3,24.2c17.5-15.1,40.3-24.2,65.3-24.2
	c10.6,0,20.8,1.6,30.3,4.7c-12.9-40.6-50.8-69.9-95.6-69.9S112.2,58.8,99.4,99.4z"/>
<path class="st3" d="M290.6,290.6c-9.6,3-19.8,4.7-30.3,4.7c-24.9,0-47.7-9.1-65.3-24.2c-17.5,15.1-40.3,24.2-65.3,24.2
	c-10.6,0-20.8-1.6-30.3-4.7c12.9,40.6,50.8,69.9,95.6,69.9S277.7,331.1,290.6,290.6z"/>
<path class="st4" d="M290.6,99.4c3,9.6,4.7,19.8,4.7,30.3c0,24.9-9.1,47.7-24.2,65.3c15.1,17.5,24.2,40.3,24.2,65.3
	c0,10.6-1.6,20.8-4.7,30.3c40.6-12.9,69.9-50.8,69.9-95.6C360.5,150.2,331.1,112.2,290.6,99.4z"/>
<path class="st5" d="M225.3,164.6c18,5.7,33.8,16.3,45.8,30.3c15.1-17.5,24.2-40.3,24.2-65.3c0-10.6-1.6-20.8-4.7-30.3
	c-9.6-3-19.8-4.7-30.3-4.7c-24.9,0-47.7,9.1-65.3,24.2C209,130.9,219.6,146.7,225.3,164.6z"/>
<path class="st6" d="M271.1,195c-12,14-27.8,24.6-45.8,30.3c-5.7,18-16.3,33.8-30.3,45.8c17.5,15.1,40.3,24.2,65.3,24.2
	c10.6,0,20.8-1.6,30.3-4.7c3-9.6,4.7-19.8,4.7-30.3C295.2,235.3,286.1,212.5,271.1,195z"/>
<path class="st7" d="M225.3,164.6c3,9.6,4.7,19.8,4.7,30.3s-1.6,20.8-4.7,30.3c18-5.7,33.8-16.3,45.8-30.3
	C259.1,181,243.3,170.3,225.3,164.6z"/>
<path class="st8" d="M99.4,290.6c-3-9.6-4.7-19.8-4.7-30.3c0-24.9,9.1-47.7,24.2-65.3c-15.1-17.5-24.2-40.3-24.2-65.3
	c0-10.6,1.6-20.8,4.7-30.3c-40.6,12.9-69.9,50.8-69.9,95.6C29.4,239.8,58.8,277.7,99.4,290.6z"/>
<path class="st9" d="M164.6,164.6c5.7-18,16.3-33.8,30.3-45.8c-17.5-15.1-40.3-24.2-65.3-24.2c-10.6,0-20.8,1.6-30.3,4.7
	c-3,9.6-4.7,19.8-4.7,30.3c0,24.9,9.1,47.7,24.2,65.3C130.9,181,146.7,170.3,164.6,164.6z"/>
<path class="st10" d="M164.6,225.3c-18-5.7-33.8-16.3-45.8-30.3c-15.1,17.5-24.2,40.3-24.2,65.3c0,10.6,1.6,20.8,4.7,30.3
	c9.6,3,19.8,4.7,30.3,4.7c24.9,0,47.7-9.1,65.3-24.2C181,259.1,170.3,243.3,164.6,225.3z"/>
<path class="st11" d="M164.6,225.3c-3-9.6-4.7-19.8-4.7-30.3s1.6-20.8,4.7-30.3c-18,5.7-33.8,16.3-45.8,30.3
	C130.9,209,146.7,219.6,164.6,225.3z"/>
<path class="st12" d="M164.6,164.6c9.6-3,19.8-4.7,30.3-4.7s20.8,1.6,30.3,4.7c-5.7-18-16.3-33.8-30.3-45.8
	C181,130.9,170.3,146.7,164.6,164.6z"/>
<path class="st13" d="M225.3,225.3c-9.6,3-19.8,4.7-30.3,4.7s-20.8-1.6-30.3-4.7c5.7,18,16.3,33.8,30.3,45.8
	C209,259.1,219.6,243.3,225.3,225.3z"/>
<path class="st14" d="M225.3,164.6c-9.6-3-19.8-4.7-30.3-4.7s-20.8,1.6-30.3,4.7c-3,9.6-4.7,19.8-4.7,30.3s1.6,20.8,4.7,30.3
	c9.6,3,19.8,4.7,30.3,4.7s20.8-1.6,30.3-4.7c3-9.6,4.7-19.8,4.7-30.3S228.3,174.2,225.3,164.6z"/>
<circle class="st15" cx="195" cy="195" r="192.5"/>
</svg>
